<?xml version="1.0" encoding="UTF-8"?>
<svg id="Layer_1" data-name="Layer 1" xmlns="http://www.w3.org/2000/svg" xmlns:xlink="http://www.w3.org/1999/xlink" viewBox="0 0 267.67 97.41">
  <defs>
    <style>
      .cls-1 {
        fill: #57b7c3;
      }

      .cls-2 {
        fill: #34a1a6;
      }

      .cls-3 {
        fill: #74c8ce;
      }

      .cls-4 {
        fill: #9ed6da;
      }

      .cls-5 {
        fill: #93d2d7;
      }

      .cls-6 {
        fill: #6bc6cb;
      }

      .cls-7 {
        fill: #8acfd4;
      }

      .cls-8 {
        fill: #3ca6ac;
      }

      .cls-9 {
        fill: #5fbdca;
      }

      .cls-10 {
        fill: #77c9ce;
      }

      .cls-11 {
        fill: #7bcacf;
      }

      .cls-12 {
        fill: #67c4d3;
      }

      .cls-13 {
        fill: #87d3e3;
      }

      .cls-14 {
        fill: #37a2a8;
      }

      .cls-15 {
        fill: #80c9c2;
      }

      .cls-16 {
        fill: #32aeb0;
      }

      .cls-17 {
        fill: #66c4ca;
      }

      .cls-18 {
        fill: #46abb3;
      }

      .cls-19 {
        fill: #08a9ac;
      }

      .cls-20 {
        fill: #72c8cd;
      }

      .cls-21 {
        fill: #46bdc3;
      }

      .cls-22 {
        fill: #7ec8c1;
      }

      .cls-23 {
        fill: #89cfd3;
      }

      .cls-24 {
        fill: #56c1c6;
      }

      .cls-25 {
        fill: #60becb;
      }

      .cls-26 {
        fill: #57c1c7;
      }

      .cls-27 {
        fill: #4cafb9;
      }

      .cls-28 {
        fill: #94d3d7;
      }

      .cls-29 {
        fill: #6ec1bc;
      }

      .cls-30 {
        fill: #59b9b7;
      }

      .cls-31 {
        fill: #5bc2c7;
      }

      .cls-32 {
        fill: #63bcb9;
      }

      .cls-33 {
        fill: #48adb6;
      }

      .cls-34 {
        fill: #9bd5d9;
      }

      .cls-35 {
        fill: #3ba5ab;
      }

      .cls-36 {
        fill: #6ac6d6;
      }

      .cls-37 {
        fill: #82cbc2;
      }

      .cls-38 {
        fill: #79cacf;
      }

      .cls-39 {
        fill: #38a3a9;
      }

      .cls-40 {
        fill: #4ab4b4;
      }

      .cls-41 {
        fill: #7fc9c1;
      }

      .cls-42 {
        fill: #1aaaad;
      }

      .cls-43 {
        fill: #41b1b2;
      }

      .cls-44 {
        fill: #69bfbb;
      }

      .cls-45 {
        fill: #52b4be;
      }

      .cls-46 {
        fill: #68beba;
      }

      .cls-47 {
        fill: #26abae;
      }

      .cls-48 {
        fill: #59c1c7;
      }

      .cls-49 {
        fill: #91d2d6;
      }

      .cls-50 {
        fill: #40bdc2;
      }

      .cls-51 {
        fill: #71c2bd;
      }

      .cls-52 {
        fill: #84ccc3;
      }

      .cls-53 {
        fill: #77c5bf;
      }

      .cls-54 {
        fill: #54b7b6;
      }

      .cls-55 {
        fill: #61bbb9;
      }

      .cls-56 {
        fill: #36a2a7;
      }

      .cls-57 {
        fill: #61c3c9;
      }

      .cls-58 {
        fill: #7dc8c1;
      }

      .cls-59 {
        fill: #5fc3c8;
      }

      .cls-60 {
        fill: #67beba;
      }

      .cls-61 {
        fill: #5dbbc8;
      }

      .cls-62 {
        fill: #64bdb9;
      }

      .cls-63 {
        fill: #54c0c6;
      }

      .cls-64 {
        fill: #53c0c6;
      }

      .cls-65 {
        fill: #4ebfc5;
      }

      .cls-66 {
        fill: #3bb0b1;
      }

      .cls-67 {
        fill: #59b9c5;
      }

      .cls-68 {
        fill: none;
      }

      .cls-69 {
        fill: #45b2b3;
      }

      .cls-70 {
        fill: #90d1d6;
      }

      .cls-71 {
        fill: #a1d7db;
      }

      .cls-72 {
        fill: #61bfcd;
      }

      .cls-73 {
        fill: #7cc7c0;
      }

      .cls-74 {
        fill: #47acb5;
      }

      .cls-75 {
        fill: #6dc9d9;
      }

      .cls-76 {
        fill: #5abac6;
      }

      .cls-77 {
        fill: #48b3b3;
      }

      .cls-78 {
        fill: #52b6b5;
      }

      .cls-79 {
        fill: #5ebab8;
      }

      .cls-80 {
        fill: #44bdc3;
      }

      .cls-81 {
        fill: #7ec9c1;
      }

      .cls-82 {
        fill: #a2d8db;
      }

      .cls-83 {
        fill: #7ecbd0;
      }

      .cls-84 {
        clip-path: url(#clippath-1);
      }

      .cls-85 {
        fill: #49bec4;
      }

      .cls-86 {
        fill: #3eb0b1;
      }

      .cls-87 {
        fill: #4db0ba;
      }

      .cls-88 {
        fill: #56b6c1;
      }

      .cls-89 {
        fill: #86ced3;
      }

      .cls-90 {
        fill: #4cbfc4;
      }

      .cls-91 {
        fill: #85ccc3;
      }

      .cls-92 {
        fill: #69c5d4;
      }

      .cls-93 {
        fill: #78c9cf;
      }

      .cls-94 {
        fill: #82cdd1;
      }

      .cls-95 {
        fill: #2aacaf;
      }

      .cls-96 {
        fill: #6dc6cc;
      }

      .cls-97 {
        fill: #3ea6ad;
      }

      .cls-98 {
        fill: #50b5b5;
      }

      .cls-99 {
        fill: #3aa4aa;
      }

      .cls-100 {
        fill: #80cac2;
      }

      .cls-101 {
        fill: #74c4be;
      }

      .cls-102 {
        fill: #8ed0d5;
      }

      .cls-103 {
        fill: #66c3d2;
      }

      .cls-104 {
        fill: #4bafb8;
      }

      .cls-105 {
        fill: #73c8cd;
      }

      .cls-106 {
        fill: #83cbc3;
      }

      .cls-107 {
        fill: #76c9ce;
      }

      .cls-108 {
        fill: #56b7b6;
      }

      .cls-109 {
        fill: #42a9b0;
      }

      .cls-110 {
        fill: #7ccbd0;
      }

      .cls-111 {
        fill: #87d3e2;
      }

      .cls-112 {
        fill: #85ced2;
      }

      .cls-113 {
        fill: #3ebcc2;
      }

      .cls-114 {
        fill: #43b2b2;
      }

      .cls-115 {
        fill: #38afb1;
      }

      .cls-116 {
        fill: #83cdd2;
      }

      .cls-117 {
        fill: #9dd6da;
      }

      .cls-118 {
        fill: #8fd1d5;
      }

      .cls-119 {
        fill: #43aab1;
      }

      .cls-120 {
        fill: #51b3bd;
      }

      .cls-121 {
        fill: #99d4d8;
      }

      .cls-122 {
        fill: #6ac5cb;
      }

      .cls-123 {
        fill: #20abae;
      }

      .cls-124 {
        fill: #4eb1bb;
      }

      .cls-125 {
        fill: #72c3bd;
      }

      .cls-126 {
        clip-path: url(#clippath-3);
      }

      .cls-127 {
        fill: #88ced3;
      }

      .cls-128 {
        fill: #65c4ca;
      }

      .cls-129 {
        fill: #4aaeb7;
      }

      .cls-130 {
        fill: #96d3d8;
      }

      .cls-131 {
        fill: #5dc2c8;
      }

      .cls-132 {
        fill: #92d2d6;
      }

      .cls-133 {
        fill: #6cc0bc;
      }

      .cls-134 {
        fill: #7ac7c0;
      }

      .cls-135 {
        fill: #6cc6cb;
      }

      .cls-136 {
        fill: #60bbb8;
      }

      .cls-137 {
        fill: #2eadaf;
      }

      .cls-138 {
        fill: #4bbec4;
      }

      .cls-139 {
        fill: #5ec2c8;
      }

      .cls-140 {
        fill: #5ebcc9;
      }

      .cls-141 {
        fill: #70c7cc;
      }

      .cls-142 {
        fill: #6fc7cc;
      }

      .cls-143 {
        fill: #81ccd1;
      }

      .cls-144 {
        fill: #63c4c9;
      }

      .cls-145 {
        fill: #69c5cb;
      }

      .cls-146 {
        fill: #5cb6be;
      }

      .cls-147 {
        fill: #65bdba;
      }

      .cls-148 {
        fill: #5cc4d5;
      }

      .cls-149 {
        fill: #67c5ca;
      }

      .cls-150 {
        fill: #95d3d7;
      }

      .cls-151 {
        fill: #00a8ac;
      }

      .cls-152 {
        fill: #54b5c0;
      }

      .cls-153 {
        fill: #58b8b6;
      }

      .cls-154 {
        fill: #3fa7ae;
      }

      .cls-155 {
        fill: #9fd7da;
      }

      .cls-156 {
        fill: #58b8c4;
      }

      .cls-157 {
        fill: #5cbac7;
      }

      .cls-158 {
        fill: #65c2d0;
      }

      .cls-159 {
        fill: #7fccd0;
      }

      .cls-160 {
        fill: #7acacf;
      }

      .cls-161 {
        fill: #4cb4b4;
      }

      .cls-162 {
        fill: #51c0c5;
      }

      .cls-163 {
        fill: #82cac2;
      }

      .cls-164 {
        fill: #5bb9b7;
      }

      .cls-165 {
        fill: #7cc8c1;
      }

      .cls-166 {
        fill: #73c3be;
      }

      .cls-167 {
        fill: #76c4bf;
      }

      .cls-168 {
        fill: #53b5bf;
      }

      .cls-169 {
        fill: #8dd0d5;
      }

      .cls-170 {
        fill: #78c5bf;
      }

      .cls-171 {
        clip-path: url(#clippath-2);
      }

      .cls-172 {
        fill: #61a9ba;
      }

      .cls-173 {
        fill: #6bc8d8;
      }

      .cls-174 {
        fill: #13a9ad;
      }

      .cls-175 {
        fill: #a3d8dc;
      }

      .cls-176 {
        fill: #8cd0d4;
      }

      .cls-177 {
        fill: #63c0ce;
      }

      .cls-178 {
        fill: #4eb5b4;
      }

      .cls-179 {
        fill: #9cd5d9;
      }

      .cls-180 {
        fill: #62c3c9;
      }

      .cls-181 {
        fill: #80ccd1;
      }

      .cls-182 {
        fill: #7bc7c0;
      }

      .cls-183 {
        fill: #79c6bf;
      }

      .cls-184 {
        fill: #81cac2;
      }

      .cls-185 {
        fill: #50b2bc;
      }

      .cls-186 {
        fill: #9ad5d9;
      }

      .cls-187 {
        fill: #6bbfbb;
      }

      .cls-188 {
        fill: #98d4d8;
      }

      .cls-189 {
        fill: #35aeb0;
      }

      .cls-190 {
        fill: #8bcfd4;
      }

      .cls-191 {
        fill: #40a8af;
      }

      .cls-192 {
        fill: #44abb2;
      }

      .cls-193 {
        fill: #75c4be;
      }

      .cls-194 {
        fill: #7ac6c0;
      }

      .cls-195 {
        fill: #5dbab8;
      }

      .cls-196 {
        fill: #84cdd2;
      }

      .cls-197 {
        fill: #70c2bd;
      }

      .cls-198 {
        clip-path: url(#clippath);
      }

      .cls-199 {
        fill: #47bec4;
      }

      .cls-200 {
        opacity: .5;
      }

      .cls-201 {
        fill: #6dc0bc;
      }

      .cls-202 {
        fill: #5ac2c7;
      }

      .cls-203 {
        fill: #42bdc3;
      }

      .cls-204 {
        fill: #64c1cf;
      }

      .cls-205 {
        fill: #a0d7db;
      }

      .cls-206 {
        fill: #50bfc5;
      }

      .cls-207 {
        fill: #71c7cd;
      }

      .cls-208 {
        fill: #6fc1bc;
      }
    </style>
    <clipPath id="clippath">
      <path class="cls-68" d="M29.71,38.5c-6.36-3.33-13.76-2.65-19.29,1.16-2.68,1.84-4.92,4.41-6.39,7.62C0,56.06,3.52,66.72,11.99,71.4c4.3,2.38,9.11,2.87,13.51,1.78,4.47-1.11,9.2-.41,13.27,1.73,4.04,2.12,7.21,5.59,8.93,9.81,1.68,4.09,4.8,7.61,9.13,9.71,6.18,2.99,13.4,2.21,18.79-1.51,2.14-1.47,3.99-3.4,5.39-5.74,5.52-9.28,2.07-21.17-7.37-26.12-3.97-2.08-8.34-2.59-12.42-1.75-4.51.93-9.19.46-13.27-1.68l-1.06-.56c-3.98-2.09-6.99-5.55-8.83-9.66-1.65-3.69-4.5-6.88-8.36-8.91Z"/>
    </clipPath>
    <clipPath id="clippath-1">
      <path class="cls-68" d="M25.5,73.18c4.47-1.11,9.2-.41,13.27,1.73,4.04,2.12,7.21,5.59,8.93,9.81,1.68,4.09,4.8,7.61,9.13,9.71,6.18,2.99,13.4,2.21,18.79-1.51.42-.29.83-.6,1.23-.93-1.81,1.03-3.82,1.78-5.96,2.15-10.64,1.84-20.51-5.64-21.76-16.22-.53-4.45.57-8.72,2.81-12.22,1.21-1.89,2.11-3.93,2.67-6.06-2.31-.26-4.56-.91-6.65-2l-1.06-.56c-3.98-2.09-6.99-5.55-8.83-9.66-1.65-3.69-4.5-6.88-8.36-8.91-6.36-3.33-13.76-2.65-19.29,1.16-2.68,1.84-4.92,4.41-6.39,7.62C0,56.06,3.52,66.72,11.99,71.4c4.3,2.38,9.11,2.87,13.51,1.78Z"/>
    </clipPath>
    <clipPath id="clippath-2">
      <path class="cls-68" d="M49.14,77.91c1.25,10.59,11.12,18.06,21.76,16.22,2.14-.37,4.15-1.11,5.96-2.15,1.62-1.33,3.04-2.94,4.16-4.82,5.52-9.28,2.07-21.17-7.37-26.12-3.97-2.08-8.34-2.59-12.42-1.75-2.19.45-4.43.57-6.62.33-.56,2.13-1.46,4.18-2.67,6.06-2.24,3.5-3.33,7.77-2.81,12.22Z"/>
    </clipPath>
    <clipPath id="clippath-3">
      <path class="cls-68" d="M74.45,46.96h0c-.77-4.54.03-9.25,2.47-13.16,2.4-3.84,3.42-8.57,2.49-13.4-1.82-9.49-10.88-16.15-20.48-15.03-10.72,1.25-18.08,11.19-16.29,21.7.73,4.3,2.88,8,5.88,10.71,3.34,3.01,5.7,6.95,6.45,11.38l.2,1.19c.19,1.1.27,2.21.25,3.31,1.71.08,3.48-.1,5.27-.56,4.97-1.29,10.28-.82,14.94,1.33"/>
    </clipPath>
  </defs>
  <g>
    <g>
      <g class="cls-198">
        <polygon class="cls-175" points="86.54 75.97 58.47 35.16 86.54 35.16 86.54 75.97"/>
        <polygon class="cls-175" points="86.54 77.28 57.57 35.16 58.47 35.16 86.54 75.97 86.54 77.28"/>
        <polygon class="cls-82" points="86.54 78.59 56.67 35.16 57.57 35.16 86.54 77.28 86.54 78.59"/>
        <polygon class="cls-71" points="86.54 79.89 55.77 35.16 56.67 35.16 86.54 78.59 86.54 79.89"/>
        <polygon class="cls-205" points="86.54 81.2 54.87 35.16 55.77 35.16 86.54 79.89 86.54 81.2"/>
        <polygon class="cls-155" points="86.54 82.51 53.97 35.16 54.87 35.16 86.54 81.2 86.54 82.51"/>
        <polygon class="cls-4" points="86.54 83.82 53.07 35.16 53.97 35.16 86.54 82.51 86.54 83.82"/>
        <polygon class="cls-117" points="86.54 85.12 52.17 35.16 53.07 35.16 86.54 83.82 86.54 85.12"/>
        <polygon class="cls-179" points="86.54 86.43 51.27 35.16 52.17 35.16 86.54 85.12 86.54 86.43"/>
        <polygon class="cls-34" points="86.54 87.74 50.37 35.16 51.27 35.16 86.54 86.43 86.54 87.74"/>
        <polygon class="cls-186" points="86.54 87.84 85.97 88.23 49.48 35.16 50.37 35.16 86.54 87.74 86.54 87.84"/>
        <polygon class="cls-121" points="85.97 88.23 85.36 88.65 48.58 35.16 49.48 35.16 85.97 88.23"/>
        <polygon class="cls-188" points="85.36 88.65 84.75 89.07 47.68 35.16 48.58 35.16 85.36 88.65"/>
        <polygon class="cls-130" points="84.75 89.07 84.14 89.49 46.78 35.16 47.68 35.16 84.75 89.07"/>
        <polygon class="cls-150" points="84.14 89.49 83.53 89.91 45.88 35.16 46.78 35.16 84.14 89.49"/>
        <polygon class="cls-28" points="83.53 89.91 82.92 90.33 44.98 35.16 45.88 35.16 83.53 89.91"/>
        <polygon class="cls-5" points="82.92 90.33 82.31 90.75 44.08 35.16 44.98 35.16 82.92 90.33"/>
        <polygon class="cls-132" points="82.31 90.75 81.7 91.17 43.18 35.16 44.08 35.16 82.31 90.75"/>
        <polygon class="cls-49" points="81.7 91.17 81.09 91.59 42.28 35.16 43.18 35.16 81.7 91.17"/>
        <polygon class="cls-70" points="81.09 91.59 80.48 92.01 41.38 35.16 42.28 35.16 81.09 91.59"/>
        <polygon class="cls-118" points="80.48 92.01 79.87 92.43 40.48 35.16 41.38 35.16 80.48 92.01"/>
        <polygon class="cls-102" points="79.87 92.43 79.26 92.85 39.58 35.16 40.48 35.16 79.87 92.43"/>
        <polygon class="cls-169" points="79.26 92.85 78.65 93.27 38.68 35.16 39.58 35.16 79.26 92.85"/>
        <polygon class="cls-176" points="78.65 93.27 78.04 93.69 37.78 35.16 38.68 35.16 78.65 93.27"/>
        <polygon class="cls-190" points="78.04 93.69 77.43 94.11 36.88 35.16 37.78 35.16 78.04 93.69"/>
        <polygon class="cls-7" points="77.43 94.11 76.82 94.53 35.98 35.16 36.88 35.16 77.43 94.11"/>
        <polygon class="cls-23" points="76.82 94.53 76.2 94.95 35.08 35.16 35.98 35.16 76.82 94.53"/>
        <polygon class="cls-127" points="76.2 94.95 75.59 95.37 34.18 35.16 35.08 35.16 76.2 94.95"/>
        <polygon class="cls-89" points="75.59 95.37 74.98 95.79 33.28 35.16 34.18 35.16 75.59 95.37"/>
        <polygon class="cls-112" points="74.98 95.79 74.37 96.21 32.38 35.16 33.28 35.16 74.98 95.79"/>
        <polygon class="cls-196" points="74.37 96.21 73.76 96.63 31.49 35.16 32.38 35.16 74.37 96.21"/>
        <polygon class="cls-116" points="73.76 96.63 73.15 97.05 30.59 35.16 31.49 35.16 73.76 96.63"/>
        <polygon class="cls-94" points="73.15 97.05 72.62 97.41 72.5 97.41 29.69 35.16 30.59 35.16 73.15 97.05"/>
        <polygon class="cls-143" points="71.6 97.41 28.79 35.16 29.69 35.16 72.5 97.41 71.6 97.41"/>
        <polygon class="cls-181" points="70.7 97.41 27.89 35.16 28.79 35.16 71.6 97.41 70.7 97.41"/>
        <polygon class="cls-159" points="69.8 97.41 26.99 35.16 27.89 35.16 70.7 97.41 69.8 97.41"/>
        <polygon class="cls-83" points="68.9 97.41 26.09 35.16 26.99 35.16 69.8 97.41 68.9 97.41"/>
        <polygon class="cls-110" points="68 97.41 25.19 35.16 26.09 35.16 68.9 97.41 68 97.41"/>
        <polygon class="cls-11" points="67.11 97.41 24.29 35.16 25.19 35.16 68 97.41 67.11 97.41"/>
        <polygon class="cls-160" points="66.21 97.41 23.39 35.16 24.29 35.16 67.11 97.41 66.21 97.41"/>
        <polygon class="cls-38" points="65.31 97.41 22.49 35.16 23.39 35.16 66.21 97.41 65.31 97.41"/>
        <polygon class="cls-93" points="64.41 97.41 21.59 35.16 22.49 35.16 65.31 97.41 64.41 97.41"/>
        <polygon class="cls-10" points="63.51 97.41 20.69 35.16 21.59 35.16 64.41 97.41 63.51 97.41"/>
        <polygon class="cls-107" points="62.61 97.41 19.79 35.16 20.69 35.16 63.51 97.41 62.61 97.41"/>
        <polygon class="cls-3" points="61.71 97.41 18.89 35.16 19.79 35.16 62.61 97.41 61.71 97.41"/>
        <polygon class="cls-105" points="60.81 97.41 17.99 35.16 18.89 35.16 61.71 97.41 60.81 97.41"/>
        <polygon class="cls-20" points="59.91 97.41 17.09 35.16 17.99 35.16 60.81 97.41 59.91 97.41"/>
        <polygon class="cls-207" points="59.01 97.41 16.19 35.16 17.09 35.16 59.91 97.41 59.01 97.41"/>
        <polygon class="cls-141" points="58.11 97.41 15.29 35.16 16.19 35.16 59.01 97.41 58.11 97.41"/>
        <polygon class="cls-142" points="57.21 97.41 14.39 35.16 15.29 35.16 58.11 97.41 57.21 97.41"/>
        <polygon class="cls-96" points="56.31 97.41 13.49 35.16 14.39 35.16 57.21 97.41 56.31 97.41"/>
        <polygon class="cls-135" points="55.41 97.41 12.86 35.55 13.43 35.16 13.49 35.16 56.31 97.41 55.41 97.41"/>
        <polygon class="cls-6" points="54.51 97.41 12.25 35.97 12.86 35.55 55.41 97.41 54.51 97.41"/>
        <polygon class="cls-122" points="53.61 97.41 11.64 36.39 12.25 35.97 54.51 97.41 53.61 97.41"/>
        <polygon class="cls-145" points="52.71 97.41 11.03 36.81 11.64 36.39 53.61 97.41 52.71 97.41"/>
        <polygon class="cls-149" points="51.81 97.41 10.42 37.23 11.03 36.81 52.71 97.41 51.81 97.41"/>
        <polygon class="cls-17" points="50.91 97.41 9.81 37.65 10.42 37.23 51.81 97.41 50.91 97.41"/>
        <polygon class="cls-128" points="50.01 97.41 9.2 38.07 9.81 37.65 50.91 97.41 50.01 97.41"/>
        <polygon class="cls-144" points="49.11 97.41 8.59 38.49 9.2 38.07 50.01 97.41 49.11 97.41"/>
        <polygon class="cls-180" points="48.22 97.41 7.98 38.91 8.59 38.49 49.11 97.41 48.22 97.41"/>
        <polygon class="cls-57" points="47.32 97.41 7.37 39.33 7.98 38.91 48.22 97.41 47.32 97.41"/>
        <polygon class="cls-59" points="46.42 97.41 6.76 39.75 7.37 39.33 47.32 97.41 46.42 97.41"/>
        <polygon class="cls-139" points="45.52 97.41 6.15 40.17 6.76 39.75 46.42 97.41 45.52 97.41"/>
        <polygon class="cls-131" points="44.62 97.41 5.53 40.59 6.15 40.17 45.52 97.41 44.62 97.41"/>
        <polygon class="cls-31" points="43.72 97.41 4.92 41.01 5.53 40.59 44.62 97.41 43.72 97.41"/>
        <polygon class="cls-202" points="42.82 97.41 4.31 41.43 4.92 41.01 43.72 97.41 42.82 97.41"/>
        <polygon class="cls-48" points="41.92 97.41 3.7 41.85 4.31 41.43 42.82 97.41 41.92 97.41"/>
        <polygon class="cls-26" points="41.02 97.41 3.09 42.27 3.7 41.85 41.92 97.41 41.02 97.41"/>
        <polygon class="cls-24" points="40.12 97.41 2.48 42.69 3.09 42.27 41.02 97.41 40.12 97.41"/>
        <polygon class="cls-63" points="39.22 97.41 1.87 43.11 2.48 42.69 40.12 97.41 39.22 97.41"/>
        <polygon class="cls-64" points="38.32 97.41 1.26 43.53 1.87 43.11 39.22 97.41 38.32 97.41"/>
        <polygon class="cls-162" points="37.42 97.41 .65 43.95 1.26 43.53 38.32 97.41 37.42 97.41"/>
        <polygon class="cls-206" points="36.52 97.41 .04 44.37 .65 43.95 37.42 97.41 36.52 97.41"/>
        <polygon class="cls-65" points="35.62 97.41 0 45.62 0 44.4 .04 44.37 36.52 97.41 35.62 97.41"/>
        <polygon class="cls-90" points="34.72 97.41 0 46.93 0 45.62 35.62 97.41 34.72 97.41"/>
        <polygon class="cls-138" points="33.82 97.41 0 48.24 0 46.93 34.72 97.41 33.82 97.41"/>
        <polygon class="cls-85" points="32.92 97.41 0 49.54 0 48.24 33.82 97.41 32.92 97.41"/>
        <polygon class="cls-199" points="32.02 97.41 0 50.85 0 49.54 32.92 97.41 32.02 97.41"/>
        <polygon class="cls-21" points="31.12 97.41 0 52.16 0 50.85 32.02 97.41 31.12 97.41"/>
        <polygon class="cls-80" points="30.23 97.41 0 53.47 0 52.16 31.12 97.41 30.23 97.41"/>
        <polygon class="cls-203" points="29.33 97.41 0 54.77 0 53.47 30.23 97.41 29.33 97.41"/>
        <polygon class="cls-50" points="28.43 97.41 0 56.08 0 54.77 29.33 97.41 28.43 97.41"/>
        <polygon class="cls-113" points="27.53 97.41 0 57.39 0 56.08 28.43 97.41 27.53 97.41"/>
        <polygon class="cls-113" points="0 57.39 27.53 97.41 0 97.41 0 57.39"/>
      </g>
      <g>
        <g class="cls-84">
          <polygon class="cls-175" points="76.86 91.96 37.79 35.16 76.86 35.16 76.86 91.96"/>
          <polygon class="cls-175" points="76.86 92.9 37.14 35.16 37.79 35.16 76.86 91.96 76.86 92.9"/>
          <polygon class="cls-82" points="76.86 93.84 36.5 35.16 37.14 35.16 76.86 92.9 76.86 93.84"/>
          <polygon class="cls-71" points="76.86 94.5 76.72 94.59 35.85 35.16 36.5 35.16 76.86 93.84 76.86 94.5"/>
          <polygon class="cls-205" points="76.72 94.59 76.29 94.89 35.2 35.16 35.85 35.16 76.72 94.59"/>
          <polygon class="cls-155" points="76.29 94.89 75.85 95.19 34.55 35.16 35.2 35.16 76.29 94.89"/>
          <polygon class="cls-4" points="75.85 95.19 75.41 95.5 33.91 35.16 34.55 35.16 75.85 95.19"/>
          <polygon class="cls-117" points="75.41 95.5 74.97 95.8 33.26 35.16 33.91 35.16 75.41 95.5"/>
          <polygon class="cls-179" points="74.97 95.8 74.53 96.1 32.61 35.16 33.26 35.16 74.97 95.8"/>
          <polygon class="cls-34" points="74.53 96.1 74.09 96.4 31.97 35.16 32.61 35.16 74.53 96.1"/>
          <polygon class="cls-186" points="74.09 96.4 73.65 96.71 31.32 35.16 31.97 35.16 74.09 96.4"/>
          <polygon class="cls-121" points="73.65 96.71 73.21 97.01 30.67 35.16 31.32 35.16 73.65 96.71"/>
          <polygon class="cls-188" points="73.21 97.01 72.77 97.31 30.02 35.16 30.67 35.16 73.21 97.01"/>
          <polygon class="cls-130" points="72.77 97.31 72.62 97.41 72.19 97.41 29.38 35.16 30.02 35.16 72.77 97.31"/>
          <polygon class="cls-150" points="71.54 97.41 28.73 35.16 29.38 35.16 72.19 97.41 71.54 97.41"/>
          <polygon class="cls-28" points="70.9 97.41 28.08 35.16 28.73 35.16 71.54 97.41 70.9 97.41"/>
          <polygon class="cls-5" points="70.25 97.41 27.43 35.16 28.08 35.16 70.9 97.41 70.25 97.41"/>
          <polygon class="cls-132" points="69.6 97.41 26.79 35.16 27.43 35.16 70.25 97.41 69.6 97.41"/>
          <polygon class="cls-49" points="68.96 97.41 26.14 35.16 26.79 35.16 69.6 97.41 68.96 97.41"/>
          <polygon class="cls-70" points="68.31 97.41 25.49 35.16 26.14 35.16 68.96 97.41 68.31 97.41"/>
          <polygon class="cls-118" points="67.66 97.41 24.84 35.16 25.49 35.16 68.31 97.41 67.66 97.41"/>
          <polygon class="cls-102" points="67.01 97.41 24.2 35.16 24.84 35.16 67.66 97.41 67.01 97.41"/>
          <polygon class="cls-169" points="66.37 97.41 23.55 35.16 24.2 35.16 67.01 97.41 66.37 97.41"/>
          <polygon class="cls-176" points="65.72 97.41 22.9 35.16 23.55 35.16 66.37 97.41 65.72 97.41"/>
          <polygon class="cls-190" points="65.07 97.41 22.26 35.16 22.9 35.16 65.72 97.41 65.07 97.41"/>
          <polygon class="cls-7" points="64.42 97.41 21.61 35.16 22.26 35.16 65.07 97.41 64.42 97.41"/>
          <polygon class="cls-23" points="63.78 97.41 20.96 35.16 21.61 35.16 64.42 97.41 63.78 97.41"/>
          <polygon class="cls-127" points="63.13 97.41 20.31 35.16 20.96 35.16 63.78 97.41 63.13 97.41"/>
          <polygon class="cls-89" points="62.48 97.41 19.67 35.16 20.31 35.16 63.13 97.41 62.48 97.41"/>
          <polygon class="cls-112" points="61.83 97.41 19.02 35.16 19.67 35.16 62.48 97.41 61.83 97.41"/>
          <polygon class="cls-196" points="61.19 97.41 18.37 35.16 19.02 35.16 61.83 97.41 61.19 97.41"/>
          <polygon class="cls-116" points="60.54 97.41 17.72 35.16 18.37 35.16 61.19 97.41 60.54 97.41"/>
          <polygon class="cls-94" points="59.89 97.41 17.08 35.16 17.72 35.16 60.54 97.41 59.89 97.41"/>
          <polygon class="cls-143" points="59.25 97.41 16.43 35.16 17.08 35.16 59.89 97.41 59.25 97.41"/>
          <polygon class="cls-181" points="58.6 97.41 15.78 35.16 16.43 35.16 59.25 97.41 58.6 97.41"/>
          <polygon class="cls-159" points="57.95 97.41 15.13 35.16 15.78 35.16 58.6 97.41 57.95 97.41"/>
          <polygon class="cls-83" points="57.3 97.41 14.49 35.16 15.13 35.16 57.95 97.41 57.3 97.41"/>
          <polygon class="cls-110" points="56.66 97.41 13.84 35.16 14.49 35.16 57.3 97.41 56.66 97.41"/>
          <polygon class="cls-11" points="56.01 97.41 13.27 35.27 13.43 35.16 13.84 35.16 56.66 97.41 56.01 97.41"/>
          <polygon class="cls-160" points="55.36 97.41 12.83 35.57 13.27 35.27 56.01 97.41 55.36 97.41"/>
          <polygon class="cls-38" points="54.71 97.41 12.39 35.87 12.83 35.57 55.36 97.41 54.71 97.41"/>
          <polygon class="cls-93" points="54.07 97.41 11.95 36.18 12.39 35.87 54.71 97.41 54.07 97.41"/>
          <polygon class="cls-10" points="53.42 97.41 11.51 36.48 11.95 36.18 54.07 97.41 53.42 97.41"/>
          <polygon class="cls-107" points="52.77 97.41 11.07 36.78 11.51 36.48 53.42 97.41 52.77 97.41"/>
          <polygon class="cls-3" points="52.12 97.41 10.63 37.08 11.07 36.78 52.77 97.41 52.12 97.41"/>
          <polygon class="cls-105" points="51.48 97.41 10.19 37.39 10.63 37.08 52.12 97.41 51.48 97.41"/>
          <polygon class="cls-20" points="50.83 97.41 9.75 37.69 10.19 37.39 51.48 97.41 50.83 97.41"/>
          <polygon class="cls-207" points="50.18 97.41 9.31 37.99 9.75 37.69 50.83 97.41 50.18 97.41"/>
          <polygon class="cls-141" points="49.54 97.41 8.87 38.29 9.31 37.99 50.18 97.41 49.54 97.41"/>
          <polygon class="cls-142" points="48.89 97.41 8.43 38.59 8.87 38.29 49.54 97.41 48.89 97.41"/>
          <polygon class="cls-96" points="48.24 97.41 7.99 38.9 8.43 38.59 48.89 97.41 48.24 97.41"/>
          <polygon class="cls-135" points="47.59 97.41 7.55 39.2 7.99 38.9 48.24 97.41 47.59 97.41"/>
          <polygon class="cls-6" points="46.95 97.41 7.12 39.5 7.55 39.2 47.59 97.41 46.95 97.41"/>
          <polygon class="cls-122" points="46.3 97.41 6.68 39.8 7.12 39.5 46.95 97.41 46.3 97.41"/>
          <polygon class="cls-145" points="45.65 97.41 6.24 40.11 6.68 39.8 46.3 97.41 45.65 97.41"/>
          <polygon class="cls-149" points="45 97.41 5.8 40.41 6.24 40.11 45.65 97.41 45 97.41"/>
          <polygon class="cls-17" points="44.36 97.41 5.36 40.71 5.8 40.41 45 97.41 44.36 97.41"/>
          <polygon class="cls-128" points="43.71 97.41 4.92 41.01 5.36 40.71 44.36 97.41 43.71 97.41"/>
          <polygon class="cls-144" points="43.06 97.41 4.48 41.31 4.92 41.01 43.71 97.41 43.06 97.41"/>
          <polygon class="cls-180" points="42.42 97.41 4.04 41.62 4.48 41.31 43.06 97.41 42.42 97.41"/>
          <polygon class="cls-57" points="41.77 97.41 3.6 41.92 4.04 41.62 42.42 97.41 41.77 97.41"/>
          <polygon class="cls-59" points="41.12 97.41 3.16 42.22 3.6 41.92 41.77 97.41 41.12 97.41"/>
          <polygon class="cls-139" points="40.47 97.41 2.72 42.52 3.16 42.22 41.12 97.41 40.47 97.41"/>
          <polygon class="cls-131" points="39.83 97.41 2.28 42.83 2.72 42.52 40.47 97.41 39.83 97.41"/>
          <polygon class="cls-31" points="39.18 97.41 1.84 43.13 2.28 42.83 39.83 97.41 39.18 97.41"/>
          <polygon class="cls-202" points="38.53 97.41 1.4 43.43 1.84 43.13 39.18 97.41 38.53 97.41"/>
          <polygon class="cls-48" points="37.88 97.41 .96 43.73 1.4 43.43 38.53 97.41 37.88 97.41"/>
          <polygon class="cls-26" points="37.24 97.41 .52 44.04 .96 43.73 37.88 97.41 37.24 97.41"/>
          <polygon class="cls-24" points="36.59 97.41 .08 44.34 .52 44.04 37.24 97.41 36.59 97.41"/>
          <polygon class="cls-63" points="35.94 97.41 0 45.16 0 44.4 .08 44.34 36.59 97.41 35.94 97.41"/>
          <polygon class="cls-64" points="35.29 97.41 0 46.1 0 45.16 35.94 97.41 35.29 97.41"/>
          <polygon class="cls-162" points="34.65 97.41 0 47.04 0 46.1 35.29 97.41 34.65 97.41"/>
          <polygon class="cls-206" points="34 97.41 0 47.98 0 47.04 34.65 97.41 34 97.41"/>
          <polygon class="cls-65" points="33.35 97.41 0 48.92 0 47.98 34 97.41 33.35 97.41"/>
          <polygon class="cls-90" points="32.71 97.41 0 49.86 0 48.92 33.35 97.41 32.71 97.41"/>
          <polygon class="cls-138" points="32.06 97.41 0 50.8 0 49.86 32.71 97.41 32.06 97.41"/>
          <polygon class="cls-85" points="31.41 97.41 0 51.74 0 50.8 32.06 97.41 31.41 97.41"/>
          <polygon class="cls-199" points="30.76 97.41 0 52.68 0 51.74 31.41 97.41 30.76 97.41"/>
          <polygon class="cls-21" points="30.12 97.41 0 53.63 0 52.68 30.76 97.41 30.12 97.41"/>
          <polygon class="cls-80" points="29.47 97.41 0 54.57 0 53.63 30.12 97.41 29.47 97.41"/>
          <polygon class="cls-203" points="28.82 97.41 0 55.51 0 54.57 29.47 97.41 28.82 97.41"/>
          <polygon class="cls-50" points="28.17 97.41 0 56.45 0 55.51 28.82 97.41 28.17 97.41"/>
          <polygon class="cls-113" points="27.53 97.41 0 57.39 0 56.45 28.17 97.41 27.53 97.41"/>
          <polygon class="cls-113" points="0 57.39 27.53 97.41 0 97.41 0 57.39"/>
        </g>
        <g class="cls-171">
          <polygon class="cls-91" points="86.54 75.97 74.49 58.46 86.54 58.46 86.54 75.97"/>
          <polygon class="cls-91" points="86.54 76.74 73.96 58.46 74.49 58.46 86.54 75.97 86.54 76.74"/>
          <polygon class="cls-91" points="86.54 77.51 73.43 58.46 73.96 58.46 86.54 76.74 86.54 77.51"/>
          <polygon class="cls-91" points="86.54 78.28 72.9 58.46 73.43 58.46 86.54 77.51 86.54 78.28"/>
          <polygon class="cls-52" points="86.54 79.05 72.37 58.46 72.9 58.46 86.54 78.28 86.54 79.05"/>
          <polygon class="cls-52" points="86.54 79.82 71.84 58.46 72.37 58.46 86.54 79.05 86.54 79.82"/>
          <polygon class="cls-52" points="86.54 80.59 71.31 58.46 71.84 58.46 86.54 79.82 86.54 80.59"/>
          <polygon class="cls-52" points="86.54 81.37 70.78 58.46 71.31 58.46 86.54 80.59 86.54 81.37"/>
          <polygon class="cls-52" points="86.54 82.14 70.25 58.46 70.78 58.46 86.54 81.37 86.54 82.14"/>
          <polygon class="cls-106" points="86.54 82.91 69.72 58.46 70.25 58.46 86.54 82.14 86.54 82.91"/>
          <polygon class="cls-106" points="86.54 83.68 69.19 58.46 69.72 58.46 86.54 82.91 86.54 83.68"/>
          <polygon class="cls-106" points="86.54 84.45 68.66 58.46 69.19 58.46 86.54 83.68 86.54 84.45"/>
          <polygon class="cls-37" points="86.54 85.22 68.13 58.46 68.66 58.46 86.54 84.45 86.54 85.22"/>
          <polygon class="cls-163" points="86.54 85.99 67.6 58.46 68.13 58.46 86.54 85.22 86.54 85.99"/>
          <polygon class="cls-184" points="86.54 86.76 67.07 58.46 67.6 58.46 86.54 85.99 86.54 86.76"/>
          <polygon class="cls-184" points="86.54 87.53 66.54 58.46 67.07 58.46 86.54 86.76 86.54 87.53"/>
          <polygon class="cls-100" points="86.54 87.75 86.28 87.93 66.01 58.46 66.54 58.46 86.54 87.53 86.54 87.75"/>
          <polygon class="cls-15" points="86.28 87.93 85.92 88.18 65.48 58.46 66.01 58.46 86.28 87.93"/>
          <polygon class="cls-41" points="85.92 88.18 85.56 88.43 64.95 58.46 65.48 58.46 85.92 88.18"/>
          <polygon class="cls-81" points="85.56 88.43 85.2 88.67 64.42 58.46 64.95 58.46 85.56 88.43"/>
          <polygon class="cls-22" points="85.2 88.67 84.84 88.92 63.89 58.46 64.42 58.46 85.2 88.67"/>
          <polygon class="cls-58" points="84.84 88.92 84.48 89.17 63.36 58.46 63.89 58.46 84.84 88.92"/>
          <polygon class="cls-165" points="84.48 89.17 84.12 89.42 62.83 58.46 63.36 58.46 84.48 89.17"/>
          <polygon class="cls-73" points="84.12 89.42 83.76 89.66 62.3 58.46 62.83 58.46 84.12 89.42"/>
          <polygon class="cls-182" points="83.76 89.66 83.4 89.91 61.77 58.46 62.3 58.46 83.76 89.66"/>
          <polygon class="cls-134" points="83.4 89.91 83.04 90.16 61.24 58.46 61.77 58.46 83.4 89.91"/>
          <polygon class="cls-194" points="83.04 90.16 82.68 90.41 60.71 58.46 61.24 58.46 83.04 90.16"/>
          <polygon class="cls-183" points="82.68 90.41 82.32 90.65 60.18 58.46 60.71 58.46 82.68 90.41"/>
          <polygon class="cls-170" points="82.32 90.65 81.96 90.9 59.65 58.46 60.18 58.46 82.32 90.65"/>
          <polygon class="cls-53" points="81.96 90.9 81.6 91.15 59.12 58.46 59.65 58.46 81.96 90.9"/>
          <polygon class="cls-167" points="81.6 91.15 81.24 91.4 58.59 58.46 59.12 58.46 81.6 91.15"/>
          <polygon class="cls-193" points="81.24 91.4 80.88 91.64 58.06 58.46 58.59 58.46 81.24 91.4"/>
          <polygon class="cls-101" points="80.88 91.64 80.52 91.89 57.53 58.46 58.06 58.46 80.88 91.64"/>
          <polygon class="cls-166" points="80.52 91.89 80.16 92.14 57 58.46 57.53 58.46 80.52 91.89"/>
          <polygon class="cls-125" points="80.16 92.14 79.8 92.39 56.47 58.46 57 58.46 80.16 92.14"/>
          <polygon class="cls-51" points="79.8 92.39 79.44 92.63 55.94 58.46 56.47 58.46 79.8 92.39"/>
          <polygon class="cls-197" points="79.44 92.63 79.08 92.88 55.41 58.46 55.94 58.46 79.44 92.63"/>
          <polygon class="cls-208" points="79.08 92.88 78.72 93.13 54.88 58.46 55.41 58.46 79.08 92.88"/>
          <polygon class="cls-29" points="78.72 93.13 78.36 93.38 54.35 58.46 54.88 58.46 78.72 93.13"/>
          <polygon class="cls-201" points="78.36 93.38 78 93.62 53.82 58.46 54.35 58.46 78.36 93.38"/>
          <polygon class="cls-133" points="78 93.62 77.64 93.87 53.29 58.46 53.82 58.46 78 93.62"/>
          <polygon class="cls-187" points="77.64 93.87 77.28 94.12 52.76 58.47 52.78 58.46 53.29 58.46 77.64 93.87"/>
          <rect class="cls-44" x="64.63" y="54.79" width=".44" height="43.27" transform="translate(-31.89 50.2) rotate(-34.52)"/>
          <rect class="cls-46" x="64.27" y="55.03" width=".44" height="43.27" transform="translate(-32.09 50.04) rotate(-34.52)"/>
          <rect class="cls-60" x="63.91" y="55.28" width=".44" height="43.27" transform="translate(-32.3 49.88) rotate(-34.52)"/>
          <rect class="cls-147" x="63.55" y="55.53" width=".44" height="43.27" transform="translate(-32.5 49.72) rotate(-34.52)"/>
          <rect class="cls-62" x="63.19" y="55.78" width=".44" height="43.27" transform="translate(-32.7 49.56) rotate(-34.52)"/>
          <rect class="cls-32" x="62.83" y="56.02" width=".44" height="43.27" transform="translate(-32.91 49.4) rotate(-34.52)"/>
          <rect class="cls-55" x="62.47" y="56.27" width=".44" height="43.27" transform="translate(-33.11 49.24) rotate(-34.52)"/>
          <polygon class="cls-136" points="74.76 95.85 74.6 95.97 74.31 95.97 49.88 60.45 50.24 60.2 74.76 95.85"/>
          <polygon class="cls-79" points="73.78 95.97 49.52 60.7 49.88 60.45 74.31 95.97 73.78 95.97"/>
          <polygon class="cls-195" points="73.25 95.97 49.16 60.95 49.52 60.7 73.78 95.97 73.25 95.97"/>
          <polygon class="cls-164" points="72.72 95.97 48.8 61.19 49.16 60.95 73.25 95.97 72.72 95.97"/>
          <polygon class="cls-30" points="72.19 95.97 48.61 61.68 48.61 61.33 48.8 61.19 72.72 95.97 72.19 95.97"/>
          <polygon class="cls-153" points="71.66 95.97 48.61 62.45 48.61 61.68 72.19 95.97 71.66 95.97"/>
          <polygon class="cls-108" points="71.13 95.97 48.61 63.23 48.61 62.45 71.66 95.97 71.13 95.97"/>
          <polygon class="cls-54" points="70.6 95.97 48.61 64 48.61 63.23 71.13 95.97 70.6 95.97"/>
          <polygon class="cls-78" points="70.07 95.97 48.61 64.77 48.61 64 70.6 95.97 70.07 95.97"/>
          <polygon class="cls-98" points="69.54 95.97 48.61 65.54 48.61 64.77 70.07 95.97 69.54 95.97"/>
          <polygon class="cls-178" points="69.01 95.97 48.61 66.31 48.61 65.54 69.54 95.97 69.01 95.97"/>
          <polygon class="cls-161" points="68.48 95.97 48.61 67.08 48.61 66.31 69.01 95.97 68.48 95.97"/>
          <polygon class="cls-40" points="67.95 95.97 48.61 67.85 48.61 67.08 68.48 95.97 67.95 95.97"/>
          <polygon class="cls-77" points="67.42 95.97 48.61 68.62 48.61 67.85 67.95 95.97 67.42 95.97"/>
          <polygon class="cls-69" points="66.89 95.97 48.61 69.39 48.61 68.62 67.42 95.97 66.89 95.97"/>
          <polygon class="cls-114" points="66.36 95.97 48.61 70.16 48.61 69.39 66.89 95.97 66.36 95.97"/>
          <polygon class="cls-43" points="65.83 95.97 48.61 70.93 48.61 70.16 66.36 95.97 65.83 95.97"/>
          <polygon class="cls-86" points="65.3 95.97 48.61 71.7 48.61 70.93 65.83 95.97 65.3 95.97"/>
          <polygon class="cls-66" points="64.77 95.97 48.61 72.48 48.61 71.7 65.3 95.97 64.77 95.97"/>
          <polygon class="cls-115" points="64.24 95.97 48.61 73.25 48.61 72.48 64.77 95.97 64.24 95.97"/>
          <polygon class="cls-189" points="63.71 95.97 48.61 74.02 48.61 73.25 64.24 95.97 63.71 95.97"/>
          <polygon class="cls-16" points="63.18 95.97 48.61 74.79 48.61 74.02 63.71 95.97 63.18 95.97"/>
          <polygon class="cls-137" points="62.65 95.97 48.61 75.56 48.61 74.79 63.18 95.97 62.65 95.97"/>
          <polygon class="cls-95" points="62.12 95.97 48.61 76.33 48.61 75.56 62.65 95.97 62.12 95.97"/>
          <polygon class="cls-47" points="61.59 95.97 48.61 77.1 48.61 76.33 62.12 95.97 61.59 95.97"/>
          <polygon class="cls-123" points="61.06 95.97 48.61 77.87 48.61 77.1 61.59 95.97 61.06 95.97"/>
          <polygon class="cls-42" points="60.53 95.97 48.61 78.64 48.61 77.87 61.06 95.97 60.53 95.97"/>
          <polygon class="cls-174" points="60 95.97 48.61 79.41 48.61 78.64 60.53 95.97 60 95.97"/>
          <polygon class="cls-19" points="59.47 95.97 48.61 80.18 48.61 79.41 60 95.97 59.47 95.97"/>
          <polygon class="cls-151" points="58.94 95.97 48.61 80.96 48.61 80.18 59.47 95.97 58.94 95.97"/>
          <polygon class="cls-151" points="48.61 80.96 58.94 95.97 48.61 95.97 48.61 80.96"/>
        </g>
      </g>
    </g>
    <g class="cls-200">
      <path class="cls-148" d="M31.98,68.81c3.98-2.85,6.48-6.94,7.4-11.34.92-4.39,3.54-8.23,7.1-10.96h0c3.66-2.8,8.2-4.29,12.79-3.95,4.52.33,9.18-.97,13.01-4.04,7.55-6.04,9.21-17.15,3.75-25.13-6.1-8.9-18.33-10.77-26.79-4.29-3.46,2.65-5.73,6.28-6.73,10.2-1.11,4.36-3.49,8.28-7.06,11.01l-.95.73c-3.66,2.8-8.19,4.06-12.79,3.91-4.16-.14-8.38,1.1-11.94,3.83C1.29,45.25-.09,57.55,6.92,65.77c6.23,7.29,17.26,8.63,25.06,3.05Z"/>
    </g>
    <g class="cls-126">
      <polygon class="cls-75" points="80.33 18.43 69.48 4.25 80.33 4.25 80.33 18.43"/>
      <polygon class="cls-75" points="80.33 19.9 68.35 4.25 69.48 4.25 80.33 18.43 80.33 19.9"/>
      <polygon class="cls-173" points="80.33 21.37 67.23 4.25 68.35 4.25 80.33 19.9 80.33 21.37"/>
      <polygon class="cls-36" points="80.33 22.85 66.1 4.25 67.23 4.25 80.33 21.37 80.33 22.85"/>
      <polygon class="cls-92" points="80.33 24.32 64.97 4.25 66.1 4.25 80.33 22.85 80.33 24.32"/>
      <polygon class="cls-12" points="80.33 25.79 63.84 4.25 64.97 4.25 80.33 24.32 80.33 25.79"/>
      <polygon class="cls-103" points="80.33 27.27 62.71 4.25 63.84 4.25 80.33 25.79 80.33 27.27"/>
      <polygon class="cls-158" points="80.33 28.74 61.59 4.25 62.71 4.25 80.33 27.27 80.33 28.74"/>
      <polygon class="cls-204" points="80.33 30.21 60.46 4.25 61.59 4.25 80.33 28.74 80.33 30.21"/>
      <polygon class="cls-177" points="80.33 31.69 59.33 4.25 60.46 4.25 80.33 30.21 80.33 31.69"/>
      <polygon class="cls-72" points="80.33 33.16 58.2 4.25 59.33 4.25 80.33 31.69 80.33 33.16"/>
      <polygon class="cls-25" points="80.33 34.63 57.07 4.25 58.2 4.25 80.33 33.16 80.33 34.63"/>
      <polygon class="cls-9" points="80.33 36.1 55.95 4.25 57.07 4.25 80.33 34.63 80.33 36.1"/>
      <polygon class="cls-140" points="80.33 37.58 54.82 4.25 55.95 4.25 80.33 36.1 80.33 37.58"/>
      <polygon class="cls-61" points="80.33 39.05 53.69 4.25 54.82 4.25 80.33 37.58 80.33 39.05"/>
      <polygon class="cls-157" points="80.33 40.52 52.56 4.25 53.69 4.25 80.33 39.05 80.33 40.52"/>
      <polygon class="cls-76" points="80.33 42 51.43 4.25 52.56 4.25 80.33 40.52 80.33 42"/>
      <polygon class="cls-67" points="80.33 43.47 50.31 4.25 51.43 4.25 80.33 42 80.33 43.47"/>
      <polygon class="cls-156" points="80.33 44.94 49.18 4.25 50.31 4.25 80.33 43.47 80.33 44.94"/>
      <polygon class="cls-1" points="80.33 46.42 48.05 4.25 49.18 4.25 80.33 44.94 80.33 46.42"/>
      <polygon class="cls-88" points="80.33 47.89 47.32 4.77 48 4.25 48.05 4.25 80.33 46.42 80.33 47.89"/>
      <polygon class="cls-152" points="80.33 49.36 46.61 5.32 47.32 4.77 80.33 47.89 80.33 49.36"/>
      <polygon class="cls-168" points="80.33 50.84 45.9 5.86 46.61 5.32 80.33 49.36 80.33 50.84"/>
      <polygon class="cls-45" points="80.33 52.31 45.19 6.41 45.9 5.86 80.33 50.84 80.33 52.31"/>
      <polygon class="cls-120" points="80.33 53.78 44.48 6.95 45.19 6.41 80.33 52.31 80.33 53.78"/>
      <polygon class="cls-185" points="80.33 54.58 80.01 54.83 43.76 7.5 44.48 6.95 80.33 53.78 80.33 54.58"/>
      <polygon class="cls-124" points="80.01 54.83 79.93 54.89 78.92 54.89 43.05 8.04 43.76 7.5 80.01 54.83"/>
      <polygon class="cls-87" points="77.8 54.89 42.34 8.59 43.05 8.04 78.92 54.89 77.8 54.89"/>
      <polygon class="cls-27" points="76.67 54.89 41.63 9.13 42.34 8.59 77.8 54.89 76.67 54.89"/>
      <polygon class="cls-104" points="75.54 54.89 40.92 9.68 41.63 9.13 76.67 54.89 75.54 54.89"/>
      <polygon class="cls-129" points="74.41 54.89 40.85 11.05 40.85 9.73 40.92 9.68 75.54 54.89 74.41 54.89"/>
      <polygon class="cls-33" points="73.28 54.89 40.85 12.53 40.85 11.05 74.41 54.89 73.28 54.89"/>
      <polygon class="cls-74" points="72.16 54.89 40.85 14 40.85 12.53 73.28 54.89 72.16 54.89"/>
      <polygon class="cls-18" points="71.03 54.89 40.85 15.47 40.85 14 72.16 54.89 71.03 54.89"/>
      <polygon class="cls-192" points="69.9 54.89 40.85 16.95 40.85 15.47 71.03 54.89 69.9 54.89"/>
      <polygon class="cls-119" points="68.77 54.89 40.85 18.42 40.85 16.95 69.9 54.89 68.77 54.89"/>
      <polygon class="cls-109" points="67.64 54.89 40.85 19.89 40.85 18.42 68.77 54.89 67.64 54.89"/>
      <polygon class="cls-191" points="66.52 54.89 40.85 21.37 40.85 19.89 67.64 54.89 66.52 54.89"/>
      <polygon class="cls-154" points="65.39 54.89 40.85 22.84 40.85 21.37 66.52 54.89 65.39 54.89"/>
      <polygon class="cls-97" points="64.26 54.89 40.85 24.31 40.85 22.84 65.39 54.89 64.26 54.89"/>
      <polygon class="cls-8" points="63.13 54.89 40.85 25.79 40.85 24.31 64.26 54.89 63.13 54.89"/>
      <polygon class="cls-35" points="62 54.89 40.85 27.26 40.85 25.79 63.13 54.89 62 54.89"/>
      <polygon class="cls-99" points="60.88 54.89 40.85 28.73 40.85 27.26 62 54.89 60.88 54.89"/>
      <polygon class="cls-39" points="59.75 54.89 40.85 30.21 40.85 28.73 60.88 54.89 59.75 54.89"/>
      <polygon class="cls-14" points="58.62 54.89 40.85 31.68 40.85 30.21 59.75 54.89 58.62 54.89"/>
      <polygon class="cls-56" points="57.49 54.89 40.85 33.15 40.85 31.68 58.62 54.89 57.49 54.89"/>
      <polygon class="cls-2" points="56.36 54.89 40.85 34.63 40.85 33.15 57.49 54.89 56.36 54.89"/>
      <polygon class="cls-2" points="40.85 34.63 56.36 54.89 40.85 54.89 40.85 34.63"/>
    </g>
  </g>
  <g>
    <g>
      <g>
        <path class="cls-172" d="M126.14,3.83h12.78v29.62c0,4.99-.01,9.99-.06,14.98-.02,2.24-.1,4.43.08,6.68s.37,4.69-.08,7c-.54,2.77-2.37,5.84-5.16,6.84-4.36,1.56-8.87,2.69-13.44,3.41-.72.11-1.46.22-2.17.05,2.3-.63,4.62-1.27,6.82-2.19-.77-.05-1.54-.1-2.31-.14.32-.35.77-.56,1.21-.75,2.16-.97,4.31-1.94,6.47-2.91-.27-.17-.64-.12-.93.02s-.53.37-.78.56c-.53.4-1.16.68-1.82.79-.36.07-.83.17-.88.54-.03.26.18.48.22.74.05.41-.35.73-.71.93-5.21,2.98-11.45,3.75-17.35,3.03-3.87-.48-7.76-1.69-10.99-3.92-4-2.76-7.13-6.7-8.94-11.21-.75-1.86-1.28-3.81-1.57-5.8-.21-1.46-.31-2.94-.31-4.42,0-7.63,2.32-13.88,6.97-18.76,4.64-4.88,10.29-7.31,16.92-7.31,3.05,0,5.92.56,8.6,1.68,2.68,1.12,5.16,2.8,7.43,5.04V3.83ZM112.71,33.08c-3.95,0-7.23,1.36-9.84,4.07-2.61,2.71-3.92,6.18-3.92,10.42s1.33,7.78,3.99,10.54c2.66,2.76,5.93,4.13,9.82,4.13s7.34-1.35,9.98-4.06c2.64-2.71,3.97-6.26,3.97-10.65s-1.32-7.78-3.97-10.45c-2.64-2.66-5.99-4-10.03-4Z"/>
        <path class="cls-172" d="M112.07,74.31c-1.37,0-2.76-.08-4.17-.26-4.38-.54-8.34-1.95-11.44-4.09-4.11-2.84-7.41-6.98-9.3-11.66-.78-1.94-1.33-3.97-1.63-6.03-.21-1.46-.32-3-.32-4.57,0-7.86,2.44-14.4,7.24-19.45,4.82-5.06,10.76-7.62,17.65-7.62,3.17,0,6.2.59,8.99,1.76,2.13.89,4.16,2.13,6.05,3.71V2.83h14.78v30.62c0,6.02-.02,10.65-.06,14.99l-.02,1.24c-.02,1.83-.05,3.56.09,5.35v.16c.19,2.32.37,4.72-.09,7.11-.57,2.95-2.59,6.44-5.81,7.59-4.34,1.56-8.93,2.72-13.62,3.46-.42.07-.83.12-1.25.14-2.25.53-4.64.81-7.09.81ZM110.1,22.64c-6.32,0-11.77,2.36-16.2,7-4.44,4.66-6.69,10.74-6.69,18.07,0,1.47.1,2.91.3,4.28.28,1.9.78,3.77,1.51,5.57,1.74,4.32,4.79,8.14,8.58,10.76,2.84,1.96,6.48,3.26,10.54,3.75,2.48.3,4.93.32,7.26.06l2.41-.67c.96-.27,1.94-.53,2.91-.83l1.13-1.22c.47-.51,1.06-.77,1.54-.99l1.66-.75c.38-.65,1.2-.79,1.51-.85.5-.09.99-.3,1.39-.61l.18-.14c.21-.17.45-.36.76-.52.65-.32,1.35-.31,1.89.02l1.61.99-5.33,2.39c.02.12.02.26,0,.41l1.7.11c1.55-.44,3.08-.93,4.58-1.46,2.48-.89,4.06-3.7,4.52-6.09.41-2.13.24-4.39.07-6.58v-.16c-.15-1.88-.13-3.73-.1-5.53v-1.23c.05-4.34.07-8.96.07-14.98V4.83h-10.78v25.91l-1.7-1.67c-2.17-2.14-4.57-3.77-7.12-4.83-2.55-1.06-5.31-1.6-8.22-1.6ZM112.75,63.24c-4.15,0-7.7-1.49-10.54-4.44-2.83-2.93-4.27-6.71-4.27-11.23s1.41-8.23,4.2-11.12c2.8-2.9,6.35-4.37,10.56-4.37s7.91,1.44,10.74,4.29c2.82,2.85,4.26,6.6,4.26,11.15s-1.43,8.46-4.25,11.35c-2.83,2.9-6.43,4.37-10.7,4.37ZM112.71,34.08c-3.7,0-6.68,1.23-9.12,3.76-2.45,2.54-3.64,5.72-3.64,9.73s1.21,7.26,3.71,9.84c2.49,2.58,5.46,3.83,9.1,3.83s6.8-1.23,9.27-3.76c2.44-2.5,3.68-5.85,3.68-9.95s-1.2-7.25-3.68-9.74c-2.47-2.49-5.52-3.7-9.32-3.7Z"/>
      </g>
      <g>
        <path class="cls-172" d="M187.48,49.98c0,6.9-2.18,12.51-6.53,16.81-4.35,4.3-10.07,6.45-17.15,6.45s-12.51-2.12-16.94-6.36c-4.43-4.24-6.65-9.69-6.65-16.35,0-7.02,2.12-12.72,6.37-17.1,4.24-4.38,9.98-6.56,17.22-6.56s12.76,2.14,17.13,6.43c4.37,4.29,6.55,9.85,6.55,16.69ZM172.11,50.62c.12-2.3-.53-4.63-1.9-6.49-1.58-2.16-3.68-3.23-6.32-3.23-2.47,0-4.49.94-6.08,2.82-1.5,1.76-2.25,3.85-2.25,6.27s.75,4.56,2.25,6.31c1.59,1.88,3.62,2.82,6.08,2.82s4.45-.94,6.04-2.82c1.34-1.6,2.06-3.49,2.18-5.67Z"/>
        <path class="cls-172" d="M163.8,74.74c-7.23,0-13.28-2.28-17.98-6.77-4.72-4.51-7.11-10.38-7.11-17.44s2.28-13.5,6.79-18.15c4.52-4.66,10.67-7.02,18.3-7.02s13.54,2.31,18.18,6.86c4.65,4.56,7,10.53,7,17.76s-2.35,13.3-6.98,17.87c-4.62,4.57-10.75,6.88-18.21,6.88ZM163.8,28.36c-6.78,0-12.22,2.05-16.15,6.11-3.94,4.07-5.94,9.47-5.94,16.06s2.02,11.29,6.18,15.27c4.12,3.94,9.47,5.94,15.91,5.94s12.06-2.02,16.1-6.02c4.09-4.04,6.08-9.19,6.08-15.74s-2-11.59-6.1-15.62c-4.06-3.98-9.47-6-16.08-6ZM163.89,60.61c-2.92,0-5.35-1.13-7.23-3.35-1.73-2.02-2.6-4.47-2.6-7.28s.88-5.21,2.6-7.24c1.88-2.22,4.31-3.34,7.23-3.34,3.13,0,5.67,1.29,7.53,3.85,1.55,2.12,2.33,4.77,2.18,7.46h0c-.14,2.5-.99,4.71-2.53,6.55-1.89,2.23-4.31,3.35-7.19,3.35ZM163.89,42.4c-2.02,0-3.64.75-4.94,2.29-1.27,1.49-1.89,3.23-1.89,5.3s.62,3.85,1.89,5.34c1.31,1.54,2.92,2.29,4.94,2.29s3.59-.75,4.89-2.29c1.13-1.35,1.73-2.92,1.83-4.78h0c.11-2-.46-3.96-1.61-5.52-1.29-1.76-2.96-2.62-5.11-2.62Z"/>
      </g>
      <g>
        <path class="cls-172" d="M218.31,51.72c-.1,6.15-2.86,11.37-8.27,15.67-4.74,3.8-10.48,6.17-17.21,7.12-.25.03-.45.04-.61.04-.72-.01-2.27-2.17-4.67-6.46-2.39-4.29-3.58-6.91-3.57-7.85,0-.33.24-.54.71-.62,4.54-.92,7.55-1.72,9.03-2.39,3.27-1.52,4.93-3.82,4.98-6.91.03-1.97-.99-4.18-3.07-6.64-3.61-4.18-5.57-6.5-5.88-6.96-2.1-3.18-3.12-6.68-3.06-10.5.09-5.54,2.81-10.1,8.14-13.67,4.81-3.23,10.5-5.04,16.24-5.66.26-.03.54-.05.78.04.47.18.69.7.87,1.17,1.38,3.64,3.01,7.18,4.88,10.6.44.82,1.17,2.35-.24,2.56-.4.06-.81-.02-1.21-.08-2.48-.38-5.29-.08-7.45,1.3-4.8,3.06-2.5,8.03.32,11.53,3.88,4.91,5.91,7.49,6.1,7.73,2.16,3.37,3.21,6.7,3.16,10Z"/>
        <path class="cls-172" d="M192.27,76.04s-.04,0-.06,0c-1.1-.02-2.24-.56-5.96-7.23-3.33-5.97-3.77-7.66-3.76-8.61.01-.84.53-1.82,1.95-2.08,4.37-.89,7.3-1.66,8.67-2.28,2.75-1.28,4.06-3.05,4.11-5.57.03-1.58-.89-3.48-2.72-5.64-5.46-6.32-5.83-6.86-5.98-7.1-2.26-3.43-3.37-7.25-3.3-11.35.1-6.04,3.06-11.05,8.8-14.9,4.75-3.19,10.6-5.23,16.92-5.9.33-.04.88-.09,1.47.13,1.13.42,1.55,1.51,1.75,2.04,1.36,3.56,2.97,7.07,4.79,10.42.55,1.02,1.11,2.33.52,3.5-.2.4-.71,1.09-1.87,1.26-.58.08-1.11,0-1.53-.06l-.12-.02c-2.43-.37-4.77.02-6.42,1.08-1.19.76-1.86,1.65-2.03,2.73-.28,1.73.68,4.07,2.72,6.6,5.19,6.56,6,7.6,6.13,7.77l.06.09c2.31,3.61,3.45,7.25,3.39,10.84h0c-.11,6.59-3.08,12.25-8.83,16.82-4.93,3.95-10.96,6.45-17.93,7.43-.34.04-.59.05-.78.05ZM192.69,73.15h0ZM185.68,60.94c.31.86,1.11,2.68,3.19,6.41,2.3,4.12,3.31,5.33,3.67,5.68.04,0,.09,0,.14-.01,6.37-.9,11.91-3.19,16.42-6.8,5.09-4.05,7.61-8.8,7.7-14.52.05-2.97-.92-6.03-2.89-9.12-.31-.4-2.34-2.98-6.04-7.66-1.82-2.25-3.88-5.65-3.33-8.95.32-1.94,1.46-3.54,3.38-4.77,2.25-1.44,5.34-1.99,8.48-1.51h.06c-.04-.08-.09-.17-.15-.28-1.89-3.47-3.56-7.1-4.96-10.79-.04-.1-.07-.18-.1-.25-5.83.63-11.21,2.5-15.56,5.41-4.95,3.31-7.39,7.39-7.47,12.45-.06,3.49.89,6.74,2.81,9.65.13.19.96,1.25,5.76,6.8,2.36,2.78,3.48,5.28,3.44,7.64-.04,2.54-1.09,6.04-5.85,8.25-1.53.69-4.37,1.47-8.68,2.36Z"/>
      </g>
      <g>
        <path class="cls-172" d="M266.17,49.98c0,6.9-2.18,12.51-6.53,16.81-4.35,4.3-10.07,6.45-17.15,6.45s-12.51-2.12-16.94-6.36-6.65-9.69-6.65-16.35c0-7.02,2.12-12.72,6.37-17.1,4.24-4.38,9.99-6.56,17.22-6.56s12.76,2.14,17.13,6.43c4.37,4.29,6.55,9.85,6.55,16.69ZM250.8,50.63c.13-2.31-.53-4.63-1.9-6.49-1.58-2.16-3.68-3.24-6.33-3.24-2.47,0-4.49.94-6.08,2.82-1.5,1.76-2.25,3.85-2.25,6.27s.75,4.56,2.25,6.31c1.59,1.88,3.62,2.82,6.08,2.82s4.45-.94,6.04-2.82c1.34-1.6,2.06-3.49,2.18-5.67Z"/>
        <path class="cls-172" d="M242.49,74.74c-7.23,0-13.28-2.28-17.98-6.77-4.72-4.51-7.11-10.38-7.11-17.44s2.28-13.5,6.79-18.15c4.52-4.66,10.67-7.02,18.3-7.02s13.54,2.31,18.18,6.86c4.65,4.56,7,10.53,7,17.76s-2.35,13.3-6.98,17.87c-4.62,4.57-10.75,6.88-18.21,6.88ZM242.49,28.36c-6.78,0-12.22,2.05-16.15,6.11-3.94,4.07-5.94,9.47-5.94,16.06s2.02,11.29,6.18,15.27c4.12,3.94,9.47,5.94,15.91,5.94s12.06-2.02,16.1-6.02c4.09-4.04,6.08-9.19,6.08-15.74s-2-11.59-6.1-15.62c-4.06-3.98-9.47-6-16.08-6ZM242.58,60.61c-2.92,0-5.35-1.13-7.23-3.35-1.73-2.02-2.6-4.47-2.6-7.28s.88-5.21,2.61-7.24c1.88-2.22,4.31-3.34,7.23-3.34,3.13,0,5.67,1.3,7.54,3.85,1.55,2.13,2.33,4.78,2.18,7.46h0c-.14,2.5-.99,4.7-2.53,6.55-1.89,2.23-4.31,3.35-7.19,3.35ZM242.58,42.4c-2.02,0-3.64.75-4.94,2.29-1.27,1.49-1.89,3.22-1.89,5.3s.62,3.85,1.89,5.34c1.31,1.54,2.92,2.29,4.94,2.29s3.59-.75,4.89-2.29c1.13-1.35,1.73-2.92,1.83-4.78h0c.11-2-.46-3.96-1.61-5.53-1.29-1.76-2.96-2.62-5.12-2.62Z"/>
      </g>
    </g>
    <g>
      <g>
        <path class="cls-146" d="M126.14,1h12.78v29.62c0,4.99-.01,9.99-.06,14.98-.02,2.24-.1,4.43.08,6.68s.37,4.69-.08,7c-.54,2.77-2.37,5.84-5.16,6.84-4.36,1.56-8.87,2.69-13.44,3.41-.72.11-1.46.22-2.17.05,2.3-.63,4.62-1.27,6.82-2.19-.77-.05-1.54-.1-2.31-.14.32-.35.77-.56,1.21-.75,2.16-.97,4.31-1.94,6.47-2.91-.27-.17-.64-.12-.93.02s-.53.37-.78.56c-.53.4-1.16.68-1.82.79-.36.07-.83.17-.88.54-.03.26.18.48.22.74.05.41-.35.73-.71.93-5.21,2.98-11.45,3.75-17.35,3.03-3.87-.48-7.76-1.69-10.99-3.92-4-2.76-7.13-6.7-8.94-11.21-.75-1.86-1.28-3.81-1.57-5.8-.21-1.46-.31-2.94-.31-4.42,0-7.63,2.32-13.88,6.97-18.76,4.64-4.88,10.29-7.31,16.92-7.31,3.05,0,5.92.56,8.6,1.68,2.68,1.12,5.16,2.8,7.43,5.04V1ZM112.71,30.25c-3.95,0-7.23,1.36-9.84,4.07-2.61,2.71-3.92,6.18-3.92,10.42s1.33,7.78,3.99,10.54c2.66,2.76,5.93,4.13,9.82,4.13s7.34-1.35,9.98-4.06c2.64-2.71,3.97-6.26,3.97-10.65s-1.32-7.78-3.97-10.45c-2.64-2.66-5.99-4-10.03-4Z"/>
        <path class="cls-146" d="M112.07,71.48c-1.37,0-2.76-.08-4.17-.26-4.38-.54-8.34-1.95-11.44-4.09-4.11-2.84-7.41-6.98-9.3-11.66-.78-1.94-1.33-3.97-1.63-6.03-.21-1.46-.32-3-.32-4.57,0-7.86,2.44-14.4,7.24-19.45,4.82-5.06,10.76-7.62,17.65-7.62,3.17,0,6.2.59,8.99,1.76,2.13.89,4.16,2.13,6.05,3.71V0h14.78v30.62c0,6.02-.02,10.65-.06,14.99l-.02,1.24c-.02,1.83-.05,3.56.09,5.35v.16c.19,2.32.37,4.72-.09,7.12-.57,2.95-2.59,6.44-5.81,7.59-4.34,1.56-8.93,2.72-13.62,3.46-.42.07-.83.12-1.25.14-2.25.53-4.64.81-7.09.81ZM110.1,19.8c-6.32,0-11.77,2.36-16.2,7-4.44,4.66-6.69,10.74-6.69,18.07,0,1.47.1,2.91.3,4.28.28,1.9.78,3.77,1.51,5.57,1.74,4.32,4.79,8.14,8.58,10.76,2.84,1.96,6.48,3.26,10.54,3.75,2.48.31,4.93.32,7.26.06l2.41-.66c.96-.27,1.94-.53,2.91-.82l1.13-1.22c.47-.51,1.06-.77,1.53-.98l1.67-.75c.38-.65,1.2-.79,1.51-.85.5-.09.98-.3,1.39-.61l.18-.15c.21-.17.45-.36.76-.51.64-.32,1.35-.31,1.89.02l1.61.99-5.33,2.39c.02.12.02.26,0,.41l1.7.11c1.55-.44,3.08-.93,4.58-1.46,2.48-.89,4.06-3.7,4.52-6.09.41-2.13.24-4.39.07-6.58v-.16c-.15-1.88-.13-3.74-.1-5.53v-1.23c.05-4.34.07-8.96.07-14.98V2h-10.78v25.91l-1.7-1.67c-2.17-2.14-4.57-3.77-7.12-4.83-2.55-1.06-5.31-1.6-8.22-1.6ZM112.75,60.41c-4.15,0-7.7-1.49-10.54-4.44-2.83-2.93-4.27-6.71-4.27-11.23s1.41-8.23,4.2-11.12c2.8-2.9,6.35-4.37,10.56-4.37s7.91,1.44,10.74,4.29c2.82,2.85,4.26,6.6,4.26,11.15s-1.43,8.46-4.25,11.35c-2.83,2.9-6.43,4.37-10.7,4.37ZM112.71,31.25c-3.7,0-6.68,1.23-9.12,3.76-2.45,2.54-3.64,5.72-3.64,9.73s1.21,7.26,3.71,9.84c2.49,2.58,5.46,3.83,9.1,3.83s6.8-1.23,9.27-3.76c2.44-2.5,3.68-5.85,3.68-9.95s-1.2-7.25-3.68-9.74c-2.47-2.49-5.52-3.7-9.32-3.7Z"/>
      </g>
      <g>
        <path class="cls-13" d="M187.48,47.15c0,6.9-2.18,12.51-6.53,16.81-4.35,4.3-10.07,6.45-17.15,6.45s-12.51-2.12-16.94-6.36c-4.43-4.24-6.65-9.69-6.65-16.35,0-7.02,2.12-12.72,6.37-17.1,4.24-4.38,9.98-6.56,17.22-6.56s12.76,2.14,17.13,6.43c4.37,4.29,6.55,9.85,6.55,16.69ZM172.11,47.79c.12-2.3-.53-4.63-1.9-6.49-1.58-2.16-3.68-3.23-6.32-3.23-2.47,0-4.49.94-6.08,2.82-1.5,1.76-2.25,3.85-2.25,6.27s.75,4.56,2.25,6.31c1.59,1.88,3.62,2.82,6.08,2.82s4.45-.94,6.04-2.82c1.34-1.6,2.06-3.49,2.18-5.67Z"/>
        <path class="cls-111" d="M163.8,71.9c-7.23,0-13.28-2.28-17.98-6.77-4.72-4.51-7.11-10.38-7.11-17.44s2.28-13.5,6.79-18.15c4.52-4.66,10.67-7.02,18.3-7.02s13.54,2.31,18.18,6.86c4.65,4.56,7,10.53,7,17.76s-2.35,13.3-6.98,17.87c-4.62,4.57-10.75,6.88-18.21,6.88ZM163.8,25.53c-6.78,0-12.22,2.05-16.15,6.11-3.94,4.07-5.94,9.47-5.94,16.06s2.02,11.29,6.18,15.27c4.12,3.94,9.47,5.94,15.91,5.94s12.06-2.02,16.1-6.02c4.09-4.04,6.08-9.19,6.08-15.74s-2-11.59-6.1-15.62c-4.06-3.98-9.47-6-16.08-6ZM163.89,57.78c-2.92,0-5.35-1.13-7.23-3.35-1.73-2.02-2.6-4.47-2.6-7.28s.88-5.21,2.6-7.24c1.88-2.22,4.31-3.34,7.23-3.34,3.13,0,5.67,1.29,7.53,3.85,1.55,2.12,2.33,4.77,2.18,7.46h0c-.14,2.5-.99,4.71-2.53,6.55-1.89,2.23-4.31,3.35-7.19,3.35ZM163.89,39.56c-2.02,0-3.64.75-4.94,2.29-1.27,1.49-1.89,3.23-1.89,5.3s.62,3.85,1.89,5.34c1.31,1.54,2.92,2.29,4.94,2.29s3.59-.75,4.89-2.29c1.13-1.35,1.73-2.92,1.83-4.78h0c.11-2-.46-3.96-1.61-5.53-1.29-1.76-2.96-2.62-5.11-2.62Z"/>
      </g>
      <g>
        <path class="cls-146" d="M218.31,48.88c-.1,6.15-2.86,11.37-8.27,15.67-4.74,3.8-10.48,6.17-17.21,7.12-.25.03-.45.04-.61.04-.72-.01-2.27-2.17-4.67-6.46-2.39-4.29-3.58-6.91-3.57-7.85,0-.33.24-.54.71-.62,4.54-.92,7.55-1.72,9.03-2.39,3.27-1.52,4.93-3.82,4.98-6.91.03-1.97-.99-4.18-3.07-6.64-3.61-4.18-5.57-6.5-5.88-6.96-2.1-3.18-3.12-6.68-3.06-10.5.09-5.54,2.81-10.1,8.14-13.67,4.81-3.23,10.5-5.04,16.24-5.66.26-.03.54-.05.78.04.47.18.69.7.87,1.17,1.38,3.64,3.01,7.18,4.88,10.6.44.82,1.17,2.35-.24,2.56-.4.06-.81-.02-1.21-.08-2.48-.38-5.29-.08-7.45,1.3-4.8,3.06-2.5,8.03.32,11.53,3.88,4.91,5.91,7.49,6.1,7.73,2.16,3.37,3.21,6.7,3.16,10Z"/>
        <path class="cls-146" d="M192.27,73.21s-.04,0-.06,0c-1.1-.02-2.24-.56-5.96-7.23-3.33-5.97-3.77-7.66-3.76-8.61.01-.84.53-1.82,1.95-2.08,4.37-.89,7.3-1.66,8.67-2.28,2.75-1.28,4.06-3.05,4.11-5.57.03-1.58-.89-3.48-2.72-5.64-5.47-6.32-5.83-6.86-5.98-7.1-2.26-3.43-3.37-7.25-3.3-11.35.1-6.03,3.06-11.05,8.8-14.9,4.75-3.18,10.6-5.23,16.92-5.91.33-.04.88-.09,1.47.13,1.13.42,1.55,1.51,1.75,2.04,1.36,3.56,2.97,7.07,4.79,10.42.55,1.02,1.11,2.33.52,3.5-.2.4-.71,1.09-1.87,1.26-.58.08-1.11,0-1.53-.06l-.11-.02c-2.43-.37-4.77.02-6.42,1.08-1.19.76-1.86,1.65-2.03,2.73-.28,1.73.68,4.07,2.72,6.6,5.19,6.56,6,7.6,6.13,7.78l.06.09c2.31,3.61,3.45,7.25,3.39,10.83h0c-.11,6.59-3.08,12.25-8.83,16.82-4.93,3.95-10.96,6.45-17.93,7.43-.35.04-.59.05-.78.05ZM192.69,70.31h0ZM185.68,58.1c.31.86,1.11,2.68,3.19,6.41,2.29,4.12,3.31,5.33,3.67,5.68.04,0,.09,0,.14-.01,6.37-.9,11.91-3.19,16.42-6.8,5.09-4.05,7.61-8.8,7.7-14.52.05-2.97-.92-6.03-2.89-9.12-.31-.4-2.34-2.98-6.04-7.66-1.82-2.25-3.88-5.65-3.33-8.95.32-1.94,1.46-3.54,3.38-4.77,2.25-1.44,5.34-1.99,8.48-1.51h.06c-.04-.08-.09-.17-.15-.28-1.89-3.47-3.56-7.09-4.96-10.78-.04-.1-.07-.18-.1-.25-5.83.63-11.21,2.5-15.56,5.41-4.95,3.31-7.39,7.39-7.47,12.45-.06,3.49.89,6.74,2.81,9.65.13.19.95,1.25,5.76,6.8,2.36,2.78,3.48,5.28,3.44,7.64-.04,2.54-1.09,6.04-5.85,8.25-1.53.69-4.37,1.47-8.68,2.36Z"/>
      </g>
      <g>
        <path class="cls-111" d="M266.17,47.15c0,6.9-2.18,12.51-6.53,16.81-4.35,4.3-10.07,6.45-17.15,6.45s-12.51-2.12-16.94-6.36-6.65-9.69-6.65-16.35c0-7.02,2.12-12.72,6.37-17.1,4.24-4.38,9.99-6.56,17.22-6.56s12.76,2.14,17.13,6.43c4.37,4.29,6.55,9.85,6.55,16.69ZM250.8,47.79c.13-2.31-.53-4.63-1.9-6.49-1.58-2.16-3.68-3.24-6.33-3.24-2.47,0-4.49.94-6.08,2.82-1.5,1.76-2.25,3.85-2.25,6.27s.75,4.56,2.25,6.31c1.59,1.88,3.62,2.82,6.08,2.82s4.45-.94,6.04-2.82c1.34-1.6,2.06-3.49,2.18-5.67Z"/>
        <path class="cls-111" d="M242.49,71.9c-7.23,0-13.28-2.28-17.98-6.77-4.72-4.51-7.11-10.38-7.11-17.44s2.28-13.5,6.79-18.15c4.52-4.66,10.67-7.02,18.3-7.02s13.54,2.31,18.18,6.86c4.65,4.56,7,10.53,7,17.76s-2.35,13.3-6.98,17.87c-4.62,4.57-10.75,6.88-18.21,6.88ZM242.49,25.53c-6.78,0-12.22,2.05-16.15,6.11-3.94,4.07-5.94,9.47-5.94,16.06s2.02,11.29,6.18,15.27c4.12,3.94,9.47,5.94,15.91,5.94s12.06-2.02,16.1-6.02c4.09-4.04,6.08-9.19,6.08-15.74s-2-11.59-6.1-15.62c-4.06-3.98-9.47-6-16.08-6ZM242.58,57.78c-2.92,0-5.35-1.13-7.23-3.35-1.73-2.02-2.6-4.47-2.6-7.28s.88-5.21,2.61-7.24c1.88-2.22,4.31-3.34,7.23-3.34,3.13,0,5.67,1.3,7.54,3.85,1.55,2.13,2.33,4.78,2.18,7.46h0c-.14,2.5-.99,4.7-2.53,6.55-1.89,2.23-4.31,3.35-7.19,3.35ZM242.58,39.56c-2.02,0-3.64.75-4.94,2.29-1.27,1.49-1.89,3.22-1.89,5.3s.62,3.85,1.89,5.34c1.31,1.54,2.92,2.29,4.94,2.29s3.59-.75,4.89-2.29c1.13-1.35,1.73-2.92,1.83-4.78h0c.11-2-.46-3.96-1.61-5.53-1.29-1.76-2.96-2.62-5.12-2.62Z"/>
      </g>
    </g>
  </g>
</svg>